<svg width="25" height="26" viewBox="0 0 25 26" fill="none" xmlns="http://www.w3.org/2000/svg">
<path d="M17.9139 6.41875C17.6714 6.41875 17.4343 6.49065 17.2326 6.62537C17.031 6.76008 16.8738 6.95156 16.781 7.17558C16.6882 7.3996 16.6639 7.64611 16.7112 7.88393C16.7585 8.12175 16.8753 8.3402 17.0468 8.51166C17.2183 8.68312 17.4368 8.79988 17.6747 8.84719C17.9125 8.8945 18.1591 8.87022 18.3832 8.77742C18.6072 8.68463 18.7987 8.52749 18.9335 8.32588C19.0682 8.12426 19.1401 7.88723 19.1401 7.64475C19.1401 7.31959 19.0109 7.00776 18.781 6.77784C18.551 6.54792 18.2391 6.41875 17.9139 6.41875ZM22.6145 8.89118C22.5947 8.0435 22.4359 7.20482 22.1445 6.40853C21.8846 5.72722 21.4802 5.11028 20.9591 4.60019C20.4531 4.07651 19.8346 3.67474 19.1504 3.42527C18.356 3.12507 17.5162 2.96267 16.6672 2.94509C15.584 2.88379 15.2366 2.88379 12.4571 2.88379C9.67755 2.88379 9.33011 2.88379 8.24692 2.94509C7.3979 2.96267 6.55811 3.12507 5.76376 3.42527C5.08081 3.67726 4.46284 4.07869 3.95504 4.60019C3.43125 5.10609 3.02939 5.72447 2.77988 6.40853C2.47961 7.20272 2.31718 8.04233 2.29959 8.89118C2.23828 9.97415 2.23828 10.3215 2.23828 13.1004C2.23828 15.8794 2.23828 16.2267 2.29959 17.3097C2.31718 18.1586 2.47961 18.9982 2.77988 19.7923C3.02939 20.4764 3.43125 21.0948 3.95504 21.6007C4.46284 22.1222 5.08081 22.5236 5.76376 22.7756C6.55811 23.0758 7.3979 23.2382 8.24692 23.2558C9.33011 23.3171 9.67755 23.3171 12.4571 23.3171C15.2366 23.3171 15.584 23.3171 16.6672 23.2558C17.5162 23.2382 18.356 23.0758 19.1504 22.7756C19.8346 22.5261 20.4531 22.1244 20.9591 21.6007C21.4825 21.0925 21.8873 20.475 22.1445 19.7923C22.4359 18.9961 22.5947 18.1574 22.6145 17.3097C22.6145 16.2267 22.6758 15.8794 22.6758 13.1004C22.6758 10.3215 22.6758 9.97415 22.6145 8.89118ZM20.7751 17.1871C20.7677 17.8356 20.6502 18.4782 20.4277 19.0874C20.2645 19.532 20.0025 19.9338 19.6613 20.2623C19.3298 20.6 18.9288 20.8615 18.4861 21.0286C17.8768 21.251 17.2341 21.3685 16.5854 21.3759C15.5636 21.427 15.1855 21.4372 12.4979 21.4372C9.8104 21.4372 9.4323 21.4372 8.41042 21.3759C7.73689 21.3885 7.06624 21.2848 6.42798 21.0694C6.0047 20.8938 5.62208 20.633 5.30391 20.3032C4.96474 19.975 4.70596 19.5729 4.54773 19.1283C4.29824 18.5103 4.15986 17.8532 4.13897 17.1871C4.13897 16.1654 4.07766 15.7874 4.07766 13.1004C4.07766 10.4135 4.07766 10.0354 4.13897 9.01378C4.14355 8.35078 4.26461 7.69373 4.49663 7.07262C4.67653 6.64138 4.95266 6.25698 5.30391 5.94878C5.61437 5.5975 5.99806 5.31852 6.42798 5.13145C7.05087 4.90673 7.70737 4.78928 8.36955 4.78409C9.39143 4.78409 9.76952 4.72279 12.4571 4.72279C15.1446 4.72279 15.5227 4.72279 16.5446 4.78409C17.1932 4.79152 17.8359 4.90898 18.4453 5.13145C18.9096 5.30376 19.3264 5.58389 19.6613 5.94878C19.9962 6.26262 20.2578 6.64631 20.4277 7.07262C20.6548 7.69474 20.7724 8.35152 20.7751 9.01378C20.8262 10.0354 20.8365 10.4135 20.8365 13.1004C20.8365 15.7874 20.8262 16.1654 20.7751 17.1871ZM12.4571 7.8593C11.4207 7.86132 10.4082 8.17042 9.54742 8.74755C8.68668 9.32468 8.01637 10.1439 7.62116 11.1018C7.22595 12.0597 7.1236 13.1132 7.32702 14.1292C7.53045 15.1452 8.03053 16.0781 8.76407 16.8101C9.49761 17.5421 10.4317 18.0402 11.4483 18.2416C12.4649 18.443 13.5184 18.3386 14.4757 17.9416C15.433 17.5447 16.2512 16.8729 16.8267 16.0112C17.4023 15.1495 17.7095 14.1366 17.7095 13.1004C17.7109 12.4109 17.5759 11.7279 17.3122 11.0908C17.0486 10.4536 16.6616 9.87485 16.1735 9.38776C15.6854 8.90067 15.1057 8.51488 14.4679 8.25257C13.8301 7.99026 13.1467 7.8566 12.4571 7.8593ZM12.4571 16.5026C11.784 16.5026 11.1261 16.3031 10.5665 15.9292C10.0069 15.5554 9.57079 15.024 9.31323 14.4024C9.05568 13.7807 8.98829 13.0967 9.11959 12.4367C9.25089 11.7768 9.57498 11.1706 10.0509 10.6948C10.5268 10.219 11.1331 9.89494 11.7932 9.76367C12.4533 9.63239 13.1375 9.69977 13.7593 9.95727C14.3811 10.2148 14.9125 10.6508 15.2864 11.2103C15.6603 11.7698 15.8599 12.4276 15.8599 13.1004C15.8599 13.5472 15.7719 13.9896 15.6009 14.4024C15.4299 14.8152 15.1792 15.1902 14.8632 15.5061C14.5473 15.822 14.1721 16.0726 13.7593 16.2436C13.3464 16.4146 12.9039 16.5026 12.4571 16.5026Z" fill="white"/>
</svg>
