<svg width="25" height="26" viewBox="0 0 25 26" fill="none" xmlns="http://www.w3.org/2000/svg">
<path d="M22.6794 6.76581C21.9114 7.09897 21.0993 7.31921 20.2683 7.41968C21.145 6.89589 21.8021 6.07188 22.1175 5.1005C21.2936 5.59096 20.3916 5.93652 19.4509 6.12216C18.8221 5.44027 17.9848 4.98637 17.0703 4.83165C16.1557 4.67692 15.2157 4.83012 14.3976 5.26722C13.5795 5.70432 12.9296 6.4006 12.5498 7.24685C12.1701 8.0931 12.082 9.04146 12.2993 9.94319C10.6334 9.85893 9.00384 9.42516 7.51651 8.67005C6.02919 7.91495 4.71734 6.8554 3.66621 5.56024C3.29753 6.20407 3.1038 6.93318 3.10429 7.67509C3.10299 8.36408 3.27207 9.04271 3.59649 9.65055C3.9209 10.2584 4.39059 10.7766 4.96372 11.159C4.29757 11.1408 3.64566 10.9621 3.06343 10.6379V10.689C3.06842 11.6544 3.4067 12.5884 4.02105 13.333C4.6354 14.0777 5.4881 14.5873 6.43492 14.7757C6.07045 14.8866 5.69204 14.9451 5.31109 14.9493C5.04739 14.9463 4.78434 14.9224 4.52441 14.8778C4.79403 15.7083 5.31581 16.434 6.01714 16.954C6.71846 17.4741 7.56445 17.7626 8.43739 17.7794C6.96333 18.9392 5.14342 19.5722 3.26776 19.5775C2.92625 19.5786 2.58502 19.5581 2.24609 19.5162C4.16113 20.7527 6.39284 21.4091 8.67237 21.4063C10.2454 21.4226 11.806 21.1253 13.2628 20.5318C14.7197 19.9383 16.0437 19.0604 17.1575 17.9495C18.2713 16.8385 19.1526 15.5168 19.7498 14.0614C20.3471 12.6061 20.6484 11.0463 20.6361 9.47322C20.6361 9.29954 20.6361 9.11564 20.6361 8.93174C21.4378 8.33387 22.1292 7.60094 22.6794 6.76581Z" fill="white"/>
</svg>
