<svg width="25" height="26" viewBox="0 0 25 26" fill="none" xmlns="http://www.w3.org/2000/svg">
<path d="M17.9527 6.30938C17.7102 6.30938 17.4731 6.38128 17.2714 6.51599C17.0698 6.65071 16.9126 6.84218 16.8198 7.0662C16.727 7.29023 16.7027 7.53673 16.75 7.77455C16.7973 8.01237 16.9141 8.23083 17.0856 8.40229C17.2571 8.57374 17.4756 8.69051 17.7135 8.73781C17.9513 8.78512 18.1979 8.76084 18.422 8.66805C18.646 8.57526 18.8376 8.41812 18.9723 8.2165C19.107 8.01489 19.179 7.77785 19.179 7.53537C19.179 7.21022 19.0498 6.89838 18.8198 6.66846C18.5898 6.43854 18.2779 6.30938 17.9527 6.30938ZM22.6533 8.78181C22.6335 7.93413 22.4747 7.09545 22.1833 6.29916C21.9234 5.61784 21.519 5.00091 20.9979 4.49081C20.4919 3.96713 19.8734 3.56536 19.1892 3.3159C18.3948 3.01569 17.555 2.8533 16.706 2.83571C15.6228 2.77441 15.2754 2.77441 12.4959 2.77441C9.71637 2.77441 9.36893 2.77441 8.28574 2.83571C7.43672 2.8533 6.59693 3.01569 5.80258 3.3159C5.11963 3.56789 4.50166 3.96931 3.99385 4.49081C3.47007 4.99672 3.06821 5.61509 2.81869 6.29916C2.51843 7.09334 2.356 7.93296 2.33841 8.78181C2.2771 9.86477 2.2771 10.2121 2.2771 12.9911C2.2771 15.77 2.2771 16.1174 2.33841 17.2003C2.356 18.0492 2.51843 18.8888 2.81869 19.683C3.06821 20.367 3.47007 20.9854 3.99385 21.4913C4.50166 22.0128 5.11963 22.4142 5.80258 22.6662C6.59693 22.9664 7.43672 23.1288 8.28574 23.1464C9.36893 23.2077 9.71637 23.2077 12.4959 23.2077C15.2754 23.2077 15.6228 23.2077 16.706 23.1464C17.555 23.1288 18.3948 22.9664 19.1892 22.6662C19.8734 22.4168 20.4919 22.015 20.9979 21.4913C21.5213 20.9831 21.9261 20.3656 22.1833 19.683C22.4747 18.8867 22.6335 18.048 22.6533 17.2003C22.6533 16.1174 22.7147 15.77 22.7147 12.9911C22.7147 10.2121 22.7147 9.86477 22.6533 8.78181ZM20.814 17.0777C20.8065 17.7263 20.689 18.3688 20.4665 18.978C20.3034 19.4226 20.0413 19.8244 19.7001 20.1529C19.3687 20.4906 18.9677 20.7521 18.525 20.9192C17.9156 21.1417 17.2729 21.2591 16.6243 21.2666C15.6024 21.3176 15.2243 21.3279 12.5368 21.3279C9.84921 21.3279 9.47112 21.3279 8.44924 21.2666C7.77571 21.2792 7.10506 21.1755 6.4668 20.9601C6.04352 20.7844 5.6609 20.5236 5.34273 20.1938C5.00356 19.8656 4.74477 19.4635 4.58654 19.0189C4.33706 18.4009 4.19868 17.7438 4.17779 17.0777C4.17779 16.0561 4.11648 15.678 4.11648 12.9911C4.11648 10.3041 4.11648 9.92607 4.17779 8.90441C4.18237 8.2414 4.30343 7.58436 4.53545 6.96324C4.71535 6.53201 4.99148 6.1476 5.34273 5.83941C5.65319 5.48813 6.03688 5.20914 6.4668 5.02208C7.08968 4.79736 7.74619 4.6799 8.40837 4.67471C9.43024 4.67471 9.80834 4.61341 12.4959 4.61341C15.1834 4.61341 15.5615 4.61341 16.5834 4.67471C17.232 4.68215 17.8747 4.79961 18.4841 5.02208C18.9485 5.19438 19.3652 5.47452 19.7001 5.83941C20.035 6.15324 20.2966 6.53693 20.4665 6.96324C20.6936 7.58537 20.8112 8.24214 20.814 8.90441C20.8651 9.92607 20.8753 10.3041 20.8753 12.9911C20.8753 15.678 20.8651 16.0561 20.814 17.0777ZM12.4959 7.74992C11.4595 7.75194 10.447 8.06105 9.58624 8.63818C8.7255 9.21531 8.05518 10.0346 7.65998 10.9924C7.26477 11.9503 7.16242 13.0038 7.36584 14.0198C7.56927 15.0358 8.06934 15.9687 8.80289 16.7007C9.53643 17.4327 10.4705 17.9308 11.4871 18.1322C12.5038 18.3336 13.5573 18.2293 14.5146 17.8323C15.4719 17.4353 16.29 16.7635 16.8656 15.9018C17.4411 15.0401 17.7483 14.0272 17.7483 12.9911C17.7497 12.3015 17.6147 11.6186 17.3511 10.9814C17.0875 10.3442 16.7005 9.76547 16.2123 9.27839C15.7242 8.7913 15.1445 8.4055 14.5067 8.14319C13.8689 7.88088 13.1855 7.74723 12.4959 7.74992ZM12.4959 16.3932C11.8229 16.3932 11.1649 16.1937 10.6054 15.8198C10.0458 15.446 9.6096 14.9147 9.35205 14.293C9.0945 13.6714 9.02711 12.9873 9.15841 12.3273C9.28971 11.6674 9.6138 11.0612 10.0897 10.5854C10.5656 10.1096 11.1719 9.78556 11.832 9.65429C12.4921 9.52302 13.1763 9.59039 13.7981 9.84789C14.4199 10.1054 14.9513 10.5415 15.3252 11.1009C15.6992 11.6604 15.8987 12.3182 15.8987 12.9911C15.8987 13.4378 15.8107 13.8802 15.6397 14.293C15.4687 14.7058 15.218 15.0808 14.9021 15.3967C14.5861 15.7127 14.2109 15.9633 13.7981 16.1342C13.3852 16.3052 12.9427 16.3932 12.4959 16.3932Z" fill="black"/>
</svg>
