<svg width="25" height="26" viewBox="0 0 25 26" fill="none" xmlns="http://www.w3.org/2000/svg">
<path d="M22.7183 6.65644C21.9504 6.98959 21.1383 7.20983 20.3072 7.3103C21.184 6.78651 21.841 5.9625 22.1564 4.99112C21.3325 5.48158 20.4306 5.82715 19.4899 6.01279C18.8611 5.3309 18.0238 4.877 17.1092 4.72227C16.1946 4.56754 15.2546 4.72075 14.4365 5.15785C13.6184 5.59495 12.9685 6.29122 12.5888 7.13747C12.209 7.98372 12.1209 8.93208 12.3382 9.83381C10.6723 9.74955 9.04278 9.31578 7.55545 8.56068C6.06813 7.80557 4.75629 6.74603 3.70515 5.45087C3.33647 6.09469 3.14274 6.82381 3.14323 7.56572C3.14193 8.25471 3.31101 8.93334 3.63543 9.54117C3.95984 10.149 4.42953 10.6672 5.00266 11.0496C4.33651 11.0315 3.6846 10.8527 3.10237 10.5285V10.5796C3.10736 11.545 3.44564 12.479 4.05999 13.2237C4.67434 13.9683 5.52704 14.4779 6.47386 14.6663C6.10939 14.7772 5.73098 14.8357 5.35003 14.84C5.08633 14.8369 4.82328 14.813 4.56335 14.7685C4.83298 15.5989 5.35475 16.3246 6.05608 16.8446C6.7574 17.3647 7.60339 17.6532 8.47633 17.67C7.00227 18.8299 5.18236 19.4629 3.3067 19.4681C2.96519 19.4692 2.62396 19.4488 2.28503 19.4068C4.20007 20.6433 6.43178 21.2997 8.71131 21.2969C10.2844 21.3132 11.8449 21.016 13.3018 20.4224C14.7586 19.8289 16.0826 18.951 17.1964 17.8401C18.3102 16.7291 19.1915 15.4074 19.7888 13.9521C20.386 12.4967 20.6873 10.9369 20.675 9.36385C20.675 9.19016 20.675 9.00627 20.675 8.82237C21.4767 8.2245 22.1681 7.49157 22.7183 6.65644Z" fill="black"/>
</svg>
