<?xml version="1.0" encoding="utf-8"?>
<!-- Generator: Adobe Illustrator 24.0.1, SVG Export Plug-In . SVG Version: 6.00 Build 0)  -->
<svg version="1.1" id="Layer_1" xmlns="http://www.w3.org/2000/svg" xmlns:xlink="http://www.w3.org/1999/xlink" x="0px" y="0px"
	 viewBox="0 0 512 512" style="enable-background:new 0 0 512 512;" xml:space="preserve">
<path d="M404.8,408.5c-0.9,0-1.4,0-2,0c-27.9,0-55.9,0-83.8,0c-1.5,0-2.4-0.5-3.2-1.7c-15.8-23-31.7-46.1-47.5-69.1
	c-10.9-15.9-21.9-31.8-32.8-47.7c-0.2-0.3-0.5-0.6-0.8-1.1c-2.1,2.5-4.2,4.8-6.3,7.2c-14.5,16.8-28.9,33.7-43.4,50.5
	c-17.1,19.9-34.3,39.9-51.4,59.9c-1.2,1.4-2.4,2.1-4.3,2c-6.8-0.1-13.7-0.1-20.5-0.1c-0.6,0-1.2,0-2.3,0
	c39.2-45.6,78-90.8,116.9-136C184.6,216,145.8,159.7,106.8,103c1,0,1.6,0,2.2,0c28,0,56.1,0,84.1,0c1.3,0,2,0.4,2.7,1.4
	c19.4,28.2,38.8,56.4,58.2,84.6c5.9,8.5,11.8,17.1,17.6,25.6c0.2,0.3,0.4,0.5,0.7,0.9c3-3.5,6-6.9,8.9-10.3
	c11.2-13.1,22.5-26.2,33.7-39.3c16.2-18.8,32.4-37.6,48.5-56.4c1.6-1.9,3.2-3.8,4.9-5.6c0.4-0.4,1.1-0.8,1.7-0.8
	c7.8-0.1,15.5,0,23.3,0c0.2,0,0.4,0,1,0.1c-0.5,0.6-0.8,1-1.2,1.4c-19.2,22.4-38.5,44.8-57.7,67.2c-13.9,16.2-27.8,32.3-41.7,48.4
	c-3.1,3.7-6.3,7.3-9.4,11c-0.6,0.7-0.6,1.2-0.1,1.9c10.7,15.5,21.3,31,32,46.4c9.5,13.8,19,27.6,28.5,41.4
	c11.4,16.5,22.7,33,34.1,49.5c8.5,12.3,17,24.7,25.5,37C404.4,407.6,404.5,407.9,404.8,408.5z M144.9,123c0.4,0.7,0.6,1.1,0.9,1.4
	c7.3,10.6,14.5,21.1,21.8,31.7c13.4,19.5,26.8,38.9,40.2,58.4c13.6,19.7,27.1,39.5,40.7,59.2c11.7,16.9,23.3,33.9,35,50.8
	c14.4,20.9,28.8,41.9,43.2,62.8c0.7,1,1.4,1.4,2.6,1.4c12,0,24,0,36,0c0.5,0,1.1-0.1,1.9-0.1c-0.6-0.9-1.1-1.7-1.6-2.4
	c-8.1-11.8-16.2-23.6-24.4-35.4c-14-20.4-28-40.8-42-61.1c-11.3-16.3-22.6-32.7-33.8-49c-11.3-16.4-22.5-32.8-33.8-49.2
	c-15.4-22.3-30.8-44.7-46.1-67c-0.7-1-1.4-1.5-2.7-1.4c-12,0.1-24,0-36,0C146.2,123,145.7,123,144.9,123z"/>
</svg>
