<?xml version="1.0" encoding="utf-8"?>
<!-- Generator: Adobe Illustrator 24.0.1, SVG Export Plug-In . SVG Version: 6.00 Build 0)  -->
<svg version="1.1" id="Layer_1" xmlns="http://www.w3.org/2000/svg" xmlns:xlink="http://www.w3.org/1999/xlink" x="0px" y="0px"
	 viewBox="0 0 512 512" style="enable-background:new 0 0 512 512;" xml:space="preserve">
<style type="text/css">
	.st0{fill:#FFFFFF;}
</style>
<path class="st0" d="M372.5,375.1c-0.6,0-1,0-1.4,0c-22,0-43.9,0-65.9,0c-1,0-1.6-0.3-2.1-1.1c-13.3-19.4-26.7-38.9-40.1-58.3
	c-7.6-11.1-15.3-22.2-22.9-33.3c-0.1-0.2-0.3-0.4-0.6-0.7c-1.1,1.2-2.2,2.4-3.2,3.6c-7.4,8.7-14.8,17.3-22.3,26
	c-9,10.5-18,20.9-27,31.4c-8.9,10.4-17.8,20.7-26.7,31.1c-0.8,1-1.7,1.4-3,1.4c-5.4-0.1-10.9,0-16.3,0c-0.5,0-0.9,0-1.8,0
	c30.6-35.6,61-71,91.4-106.3c-30.3-44.1-60.6-88.1-91.1-132.4c0.8,0,1.2,0,1.7,0c21.9,0,43.8,0,65.8,0c1,0,1.6,0.3,2.1,1.1
	c13.1,19,26.1,38,39.2,57c6.7,9.7,13.3,19.3,20,29c0.2,0.2,0.4,0.5,0.6,0.8c2-2.3,4-4.6,6-6.9c8.4-9.8,16.8-19.5,25.2-29.3
	c9.6-11.1,19.1-22.2,28.7-33.4c5.1-5.9,10.1-11.8,15.3-17.6c0.3-0.4,1-0.7,1.5-0.8c6-0.1,12,0,18,0c0.2,0,0.4,0,0.9,0.1
	c-1.3,1.6-2.5,3-3.8,4.4c-13.1,15.3-26.3,30.6-39.4,45.9c-10.9,12.6-21.7,25.2-32.6,37.9c-3.4,3.9-6.8,7.9-10.2,11.8
	c-0.5,0.6-0.4,1,0,1.6c5.9,8.5,11.7,17,17.6,25.5c9.3,13.5,18.5,26.9,27.8,40.4c10.5,15.2,21,30.4,31.4,45.6
	c5.7,8.2,11.3,16.4,17,24.7C372.1,374.4,372.2,374.6,372.5,375.1z M169.3,152c0.3,0.5,0.4,0.8,0.6,1.1c7,10.1,13.9,20.3,20.9,30.4
	c12.7,18.4,25.4,36.8,38.1,55.3c8.8,12.8,17.6,25.6,26.4,38.3c8.8,12.8,17.7,25.6,26.5,38.4c9.9,14.3,19.7,28.6,29.5,43
	c0.5,0.8,1.1,1.1,2,1.1c9.4,0,18.7,0,28.1,0c0.4,0,0.8,0,1.5-0.1c-0.5-0.7-0.9-1.3-1.2-1.8c-4.6-6.7-9.3-13.5-13.9-20.2
	c-11.3-16.4-22.5-32.7-33.7-49.1c-10.9-15.9-21.9-31.7-32.8-47.6c-8.8-12.8-17.6-25.6-26.4-38.5c-11.3-16.4-22.6-32.8-33.9-49.3
	c-0.5-0.8-1-1.1-2-1.1c-9.4,0-18.8,0-28.3,0C170.2,152,169.8,152,169.3,152z"/>
</svg>
