<svg width="25" height="26" viewBox="0 0 25 26" fill="none" xmlns="http://www.w3.org/2000/svg">
<path d="M24.2405 7.21575C24.7309 9.1038 24.7309 13.1006 24.7309 13.1006C24.7309 13.1006 24.7309 17.0973 24.2405 18.9854C24.1041 19.5171 23.8272 20.0025 23.439 20.3907C23.0508 20.7789 22.5655 21.0557 22.0337 21.1922C20.1457 21.6826 12.4709 21.6826 12.4709 21.6826C12.4709 21.6826 4.79618 21.6826 2.90814 21.1922C2.37637 21.0557 1.89103 20.7789 1.50283 20.3907C1.11463 20.0025 0.837821 19.5171 0.701338 18.9854C0.210938 17.0973 0.210938 13.1006 0.210938 13.1006C0.210938 13.1006 0.210938 9.1038 0.701338 7.21575C0.995578 6.13687 1.82926 5.30319 2.90814 5.00895C4.79618 4.51855 12.4709 4.51855 12.4709 4.51855C12.4709 4.51855 20.1457 4.51855 22.0337 5.00895C23.1126 5.30319 23.9463 6.13687 24.2405 7.21575ZM10.0189 16.7786L16.3941 13.1006L10.0189 9.42255V16.7786Z" fill="white"/>
</svg>
