<svg width="25" height="26" viewBox="0 0 25 26" fill="none" xmlns="http://www.w3.org/2000/svg">
<path d="M24.2796 7.10638C24.77 8.99442 24.77 12.9912 24.77 12.9912C24.77 12.9912 24.77 16.9879 24.2796 18.876C24.1431 19.4077 23.8663 19.8931 23.4781 20.2813C23.0899 20.6695 22.6046 20.9463 22.0728 21.0828C20.1848 21.5732 12.51 21.5732 12.51 21.5732C12.51 21.5732 4.83524 21.5732 2.9472 21.0828C2.41544 20.9463 1.93009 20.6695 1.54189 20.2813C1.15369 19.8931 0.876884 19.4077 0.7404 18.876C0.25 16.9879 0.25 12.9912 0.25 12.9912C0.25 12.9912 0.25 8.99442 0.7404 7.10638C1.03464 6.0275 1.86832 5.19382 2.9472 4.89958C4.83524 4.40918 12.51 4.40918 12.51 4.40918C12.51 4.40918 20.1848 4.40918 22.0728 4.89958C23.1517 5.19382 23.9854 6.0275 24.2796 7.10638ZM10.058 16.6692L16.4332 12.9912L10.058 9.31318V16.6692Z" fill="black"/>
</svg>
